name 900006_25ik_lsw.mot
datacolumns 165
datarows 4
range 0.83333000 0.85833000
cursor 1.0 1.0 0.0
keys m_key
wrap
enforce_loops no
enforce_constraints no
calc_derivatives 0.008333
event_color 1.000000 0.000000 1.000000
endheader

                time	          calcn_r_tx	          calcn_r_ty	          calcn_r_tz	          calcn_r_r1	          calcn_r_r2	          calcn_r_r3	          calcn_l_tx	          calcn_l_ty	          calcn_l_tz	          calcn_l_r1	          calcn_l_r2	          calcn_l_r3	           pelvis_tz	           pelvis_tx	           pelvis_ty	         pelvis_tilt	         pelvis_list	     pelvis_rotation	       hip_flexion_r	     hip_adduction_r	      hip_rotation_r	        knee_angle_r	       ankle_angle_r	    subtalar_angle_r	         mtp_angle_r	       hip_flexion_l	     hip_adduction_l	      hip_rotation_l	        knee_angle_l	       ankle_angle_l	    subtalar_angle_l	         mtp_angle_l	    lumbar_extension	      lumbar_bending	     lumbar_rotation	     ground_force_px	     ground_force_py	     ground_force_pz	     ground_force_vx	     ground_force_vy	     ground_force_vz	     ground_force_px	     ground_force_py	     ground_force_pz	     ground_force_vx	     ground_force_vy	     ground_force_vz	     ground_torque_x	     ground_torque_y	     ground_torque_z	     ground_torque_x	     ground_torque_y	     ground_torque_z	           midhip_px	           midhip_py	           midhip_pz	            hip_r_px	            hip_r_py	            hip_r_pz	            hip_l_px	            hip_l_py	            hip_l_pz	           knee_r_px	           knee_r_py	           knee_r_pz	           knee_l_px	           knee_l_py	           knee_l_pz	          ankle_r_px	          ankle_r_py	          ankle_r_pz	          ankle_l_px	          ankle_l_py	          ankle_l_pz	          midasis_px	          midasis_py	          midasis_pz	           asis_r_px	           asis_r_py	           asis_r_pz	           asis_l_px	           asis_l_py	           asis_l_pz	           psis_r_px	           psis_r_py	           psis_r_pz	           psis_l_px	           psis_l_py	           psis_l_pz	     epicondLat_r_px	     epicondLat_r_py	     epicondLat_r_pz	     epicondLat_l_px	     epicondLat_l_py	     epicondLat_l_pz	     epicondMed_r_px	     epicondMed_r_py	     epicondMed_r_pz	     epicondMed_l_px	     epicondMed_l_py	     epicondMed_l_pz	   malleolusLat_r_px	   malleolusLat_r_py	   malleolusLat_r_pz	   malleolusLat_l_px	   malleolusLat_l_py	   malleolusLat_l_pz	  malleolusMedv_r_px	  malleolusMedv_r_py	  malleolusMedv_r_pz	  malleolusMedv_l_px	  malleolusMedv_l_py	  malleolusMedv_l_pz	     sternalnotch_px	     sternalnotch_py	     sternalnotch_pz	   xyphoidprocess_px	   xyphoidprocess_py	   xyphoidprocess_pz	             neck_px	             neck_py	             neck_pz	            toe_r_px	            toe_r_py	            toe_r_pz	            toe_l_px	            toe_l_py	            toe_l_pz	      thighwand_r_px	      thighwand_r_py	      thighwand_r_pz	      thighwand_l_px	      thighwand_l_py	      thighwand_l_pz	      upperleg1_r_px	      upperleg1_r_py	      upperleg1_r_pz	      upperleg1_l_px	      upperleg1_l_py	      upperleg1_l_pz	      upperleg2_r_px	      upperleg2_r_py	      upperleg2_r_pz	      upperleg2_l_px	      upperleg2_l_py	      upperleg2_l_pz	      shankwand_r_px	      shankwand_r_py	      shankwand_r_pz	      shankwand_l_px	      shankwand_l_py	      shankwand_l_pz	      lowerleg1_r_px	      lowerleg1_r_py	      lowerleg1_r_pz	      lowerleg1_l_px	      lowerleg1_l_py	      lowerleg1_l_pz	    subclavicle_r_px	    subclavicle_r_py	    subclavicle_r_pz	    subclavicle_l_px	    subclavicle_l_py	    subclavicle_l_pz	
          0.83333000	         -1.62400682	          0.03673479	          0.34157285	          2.18796075	         -0.87689320	          0.06377137	         -2.05583743	          0.12336940	          0.20828268	         -0.73812224	          2.01702694	        -33.95536927	          0.27642670	         -1.64413528	          0.81572561	          2.34342240	         -1.00803526	         -1.97757459	         19.85195103	          3.23750417	         -0.17973809	        -21.75199412	         -0.46573229	          0.00000000	          0.00000000	        -13.58704400	          0.71257057	         -5.06532660	        -27.87580839	          5.30319523	          0.00000000	          0.00000000	         -3.12040179	          5.91678029	         -2.64668942	         -1.57831444	          0.00000000	          0.33233190	        -43.12995996	        317.89559969	         -8.08247436	         -1.91407759	          0.00000000	          0.21678374	         28.78163011	        136.01613176	         -2.14177126	          0.00000000	         -0.45493285	          0.00000000	          0.00000000	         -0.01041382	          0.00000000	         -1.68106049	          0.75601492	          0.27147909	         -1.69098706	          0.75439734	          0.32801884	         -1.67113417	          0.75763265	          0.21493918	         -1.60869069	          0.41359353	          0.34082740	         -1.79194797	          0.42404863	          0.20982504	         -1.57496220	          0.06445550	          0.33140939	         -2.00276647	          0.12322423	          0.20438028	         -1.64759283	          0.82894718	          0.27880012	         -1.65151300	          0.83207843	          0.38901302	         -1.64367286	          0.82581596	          0.16858706	         -1.82991994	          0.85824733	          0.30728443	         -1.82259346	          0.85521923	          0.25751444	         -1.58373623	          0.42145616	          0.40044459	         -1.78288597	          0.40524743	          0.15156881	         -1.59587571	          0.41862518	          0.27763313	         -1.76892499	          0.40743763	          0.27545571	         -1.58136645	          0.06302425	          0.36833027	         -2.00861791	          0.12825541	          0.16870479	         -1.56899988	          0.05910156	          0.29845920	         -2.00637695	          0.12678747	          0.23796221	         -1.66615301	          1.18105612	          0.27819145	         -1.65433742	          1.07997315	          0.26897912	         -1.77658176	          1.24839110	          0.27945338	         -1.49211083	          0.04840822	          0.35008815	         -1.93876837	          0.05661188	          0.20465453	         -1.51405125	          0.59285776	          0.36979032	         -1.63971280	          0.53539991	          0.13819149	         -1.57727864	          0.61001866	          0.40798965	         -1.64974455	          0.58193150	          0.20583016	         -1.56854425	          0.55309040	          0.40147428	         -1.66915590	          0.52717528	          0.21348565	         -1.45976299	          0.19046294	          0.36375608	         -1.94717637	          0.21335886	          0.08013700	         -1.53342838	          0.16952610	          0.34275412	         -1.95276860	          0.20480439	          0.15936259	         -1.66788914	          1.17715328	          0.33458460	         -1.65928059	          1.18517495	          0.22842487	
          0.84166333	         -1.62338038	          0.03659119	          0.34155910	          2.23423832	         -1.09010312	         -0.05922706	         -2.05022184	          0.12920188	          0.20838643	         -0.66931317	          2.28026775	        -36.51124151	          0.27747226	         -1.63753160	          0.81669060	          2.34683611	         -0.96829245	         -2.00379954	         19.33274449	          3.23269071	         -0.28274402	        -21.71782921	         -0.10195341	          0.00000000	          0.00000000	        -13.07972868	          0.63907152	         -5.00210861	        -29.20742387	          3.52786209	          0.00000000	          0.00000000	         -3.05504759	          5.84459408	         -2.69971181	         -1.57635048	          0.00000000	          0.33264651	        -43.33972483	        335.03612894	         -9.12088392	         -1.91345317	          0.00000000	          0.21715003	         23.95097295	        108.73968525	         -2.25535065	          0.00000000	         -0.49664353	          0.00000000	          0.00000000	          0.03131472	          0.00000000	         -1.67443447	          0.75686268	          0.27302538	         -1.68438129	          0.75516449	          0.32955928	         -1.66448796	          0.75856102	          0.21649139	         -1.60514481	          0.41352901	          0.34160603	         -1.78182904	          0.42380346	          0.20954120	         -1.57465399	          0.06443569	          0.33126458	         -1.99707765	          0.12658773	          0.20443209	         -1.64099003	          0.82978100	          0.28042727	         -1.64493714	          0.83278723	          0.39077150	         -1.63704300	          0.82677501	          0.17008279	         -1.82320141	          0.85902824	          0.30880404	         -1.81604374	          0.85590127	          0.25893003	         -1.58031175	          0.42120000	          0.40124641	         -1.77303276	          0.40522571	          0.15130174	         -1.59202606	          0.41831281	          0.27899500	         -1.75927199	          0.40686823	          0.27496653	         -1.58108666	          0.06296414	          0.36817835	         -2.00321618	          0.13196273	          0.16885626	         -1.56876494	          0.05916898	          0.29829968	         -2.00028133	          0.13042535	          0.23807142	         -1.66026043	          1.18215485	          0.27990113	         -1.64829451	          1.08108779	          0.27070493	         -1.77080121	          1.24931613	          0.28128989	         -1.49190363	          0.04815642	          0.34994002	         -1.93602535	          0.05700222	          0.20495430	         -1.50885075	          0.59194328	          0.37124311	         -1.63059504	          0.53662959	          0.13870261	         -1.57192928	          0.60967735	          0.40916088	         -1.64135613	          0.58278290	          0.20653460	         -1.56374856	          0.55270300	          0.40275209	         -1.66032464	          0.52775318	          0.21389755	         -1.45831694	          0.18926545	          0.36399837	         -1.94123033	          0.21700895	          0.08024409	         -1.53207881	          0.16902228	          0.34302215	         -1.94638927	          0.20811218	          0.15914865	         -1.66204589	          1.17825496	          0.33623730	         -1.65334614	          1.18627799	          0.23019716	
          0.84999667	         -1.62286295	          0.03643114	          0.34098028	          2.39849222	         -1.25086585	         -0.14440622	         -2.04394143	          0.13476972	          0.20838982	         -0.43928672	          2.61869650	        -39.15394596	          0.27955364	         -1.63141288	          0.81762290	          2.43540263	         -0.91477263	         -1.99612518	         18.75940759	          3.33845358	         -0.40315815	        -21.71032944	          0.29654812	          0.00000000	          0.00000000	        -12.53238654	          0.43998037	         -4.97937295	        -30.63411217	          1.63011788	          0.00000000	          0.00000000	         -3.00154482	          5.75555231	         -2.78212200	         -1.57455821	          0.00000000	          0.33295609	        -43.06480019	        350.17107832	        -10.09066486	         -1.91323621	          0.00000000	          0.21741276	         18.92480722	         83.19592157	         -1.94372469	          0.00000000	         -0.52637047	          0.00000000	          0.00000000	          0.07222028	          0.00000000	         -1.66791619	          0.75771463	          0.27457925	         -1.67787547	          0.75594373	          0.33110888	         -1.65795729	          0.75948569	          0.21804960	         -1.60194188	          0.41349494	          0.34237056	         -1.77161724	          0.42350866	          0.20917363	         -1.57437609	          0.06443372	          0.33113240	         -1.99081102	          0.12988285	          0.20452132	         -1.63448248	          0.83061317	          0.28204822	         -1.63844791	          0.83349306	          0.39249789	         -1.63051701	          0.82773364	          0.17159829	         -1.81670899	          0.85984159	          0.31020365	         -1.80963280	          0.85661222	          0.26026803	         -1.57712350	          0.42094425	          0.40203458	         -1.76294937	          0.40522244	          0.15097349	         -1.58854608	          0.41801725	          0.28039540	         -1.74930309	          0.40646492	          0.27473864	         -1.58087582	          0.06292131	          0.36803250	         -1.99728211	          0.13563483	          0.16906466	         -1.56868057	          0.05941085	          0.29812234	         -1.99356426	          0.13395316	          0.23822303	         -1.65443697	          1.18329379	          0.28157493	         -1.64233868	          1.08223688	          0.27243841	         -1.76505562	          1.25028506	          0.28308518	         -1.49172868	          0.04801353	          0.34975740	         -1.93301628	          0.05738630	          0.20525064	         -1.50391693	          0.59096899	          0.37268822	         -1.62139383	          0.53795973	          0.13906857	         -1.56680986	          0.60933890	          0.41034565	         -1.63284347	          0.58365388	          0.20703926	         -1.55921091	          0.55232030	          0.40404483	         -1.65131639	          0.52843274	          0.21421980	         -1.45703688	          0.18815419	          0.36435945	         -1.93492453	          0.22074477	          0.08044242	         -1.53091531	          0.16863321	          0.34343921	         -1.93953445	          0.21144247	          0.15899563	         -1.65630788	          1.17941169	          0.33794556	         -1.64744788	          1.18740776	          0.23184445	
          0.85833000	         -1.62258015	          0.03630461	          0.34081023	          2.48186681	         -1.40240697	         -0.20655702	         -2.03714899	          0.14036855	          0.20882427	         -0.23456461	          3.03820330	        -41.88793266	          0.28103452	         -1.62521014	          0.81855397	          2.46717076	         -0.91179637	         -1.97237156	         18.18600803	          3.42186001	         -0.51268796	        -21.63508385	          0.70887491	          0.00000000	          0.00000000	        -11.89286646	          0.24541610	         -4.99752024	        -32.06584375	         -0.38946751	          0.00000000	          0.00000000	         -2.95059546	          5.66378549	         -2.87158055	         -1.57278368	          0.00000000	          0.33325812	        -42.46786644	        363.77335130	        -11.06551611	         -1.91345856	          0.00000000	          0.21750450	         13.68106820	         60.17368350	         -1.37392166	          0.00000000	         -0.53767267	          0.00000000	          0.00000000	          0.10673519	          0.00000000	         -1.66151666	          0.75856654	          0.27612443	         -1.67147700	          0.75673569	          0.33265216	         -1.65155683	          0.76039758	          0.21959676	         -1.59914135	          0.41355465	          0.34313162	         -1.76116271	          0.42304065	          0.20877177	         -1.57412419	          0.06444050	          0.33101593	         -1.98397675	          0.13307710	          0.20464754	         -1.62808765	          0.83144100	          0.28364305	         -1.63206002	          0.83420242	          0.39415976	         -1.62411516	          0.82867993	          0.17312616	         -1.81044540	          0.86066423	          0.31146090	         -1.80337303	          0.85733298	          0.26150119	         -1.57412649	          0.42069608	          0.40280661	         -1.75266771	          0.40523801	          0.15062524	         -1.58554040	          0.41783744	          0.28176501	         -1.73888031	          0.40608045	          0.27472991	         -1.58070876	          0.06288823	          0.36789947	         -1.99081259	          0.13923364	          0.16932830	         -1.56871942	          0.05979376	          0.29793566	         -1.98626324	          0.13728184	          0.23841339	         -1.64866447	          1.18444868	          0.28320419	         -1.63644208	          1.08339996	          0.27414129	         -1.75934853	          1.25127357	          0.28483538	         -1.49157699	          0.04794349	          0.34954471	         -1.92965238	          0.05778817	          0.20552141	         -1.49922468	          0.58995550	          0.37407599	         -1.61214766	          0.53937549	          0.13935091	         -1.56190374	          0.60901636	          0.41155578	         -1.62429510	          0.58456948	          0.20741683	         -1.55493627	          0.55195941	          0.40533262	         -1.64214634	          0.52922339	          0.21449395	         -1.45588162	          0.18712472	          0.36477697	         -1.92823499	          0.22452206	          0.08074777	         -1.52989002	          0.16834218	          0.34396251	         -1.93219377	          0.21473442	          0.15897318	         -1.65063042	          1.18058647	          0.33968426	         -1.64159129	          1.18855182	          0.23337237	
